#!OML:ASF I:\Actors\actors\Patient Classification 1\Patient 1\Session 1\Subject1.ASF
:FULLY-SPECIFIED
:DEGREES
760
root -0.365492 17.6154 8.38232 12.2983 -15.6015 -6.77144
lowerback 7.66588 -2.63946 2.75339
upperback -6.67951 -3.01636 2.19083
thorax -11.5399 -1.57206 1.35943
lowerneck -10.9479 1.29531 2.02154
upperneck 31.6064 -0.205448 4.15274
head 12.238 0.574976 1.1722
rclavicle -4.36519e-014 -2.70347e-014
rhumerus 0.221934 17.2635 -75.4612
rradius 90.432
rwrist 25.1028
rhand -19.6122 -28.8678
rfingers 7.12502
rthumb 6.71418 -58.7414
lclavicle -4.36519e-014 -2.70347e-014
lhumerus -2.10257 -43.4385 106.513
lradius 69.3878
lwrist 16.9386
lhand -44.7587 -48.2046
lfingers 7.12502
lthumb -17.5514 -18.9768
rfemur -9.85167 26.5173 20.671
rtibia 1.8111
rfoot -6.92136 -6.10558
rtoes -9.01155
lfemur -0.709637 -20.0207 -11.3472
ltibia 5.53399
lfoot -14.3956 32.3709
ltoes 4.3878
761
root -0.30058 17.6139 8.36754 12.6418 -16.4648 -6.64519
lowerback 7.69344 -2.68918 2.59749
upperback -6.70428 -3.0989 2.23978
thorax -11.5726 -1.59709 1.51665
lowerneck -10.9329 1.55793 2.3528
upperneck 31.4535 0.126863 4.05601
head 12.1711 0.745791 1.11883
rclavicle 1.71359e-014 3.57812e-015
rhumerus 2.13513 18.4606 -75.4391
rradius 90.1474
rwrist 24.3183
rhand -19.7004 -28.8715
rfingers 7.12502
rthumb 6.62901 -58.7477
lclavicle 1.71359e-014 3.57812e-015
lhumerus -1.21646 -42.8737 106.607
lradius 69.3551
lwrist 18.127
lhand -44.6899 -49.9852
lfingers 7.12502
lthumb -17.4853 -20.7515
rfemur -10.4884 26.8761 19.9365
rtibia 1.68981
rfoot -6.72804 -6.08005
rtoes -9.68024
lfemur -0.753672 -20.1802 -11.7294
ltibia 5.20746
lfoot -14.8387 32.7722
ltoes 3.87279
762
root -0.234576 17.6125 8.35198 12.968 -17.2009 -6.54017
lowerback 7.74555 -2.74156 2.40627
upperback -6.73226 -3.18757 2.29969
thorax -11.6205 -1.62129 1.70821
lowerneck -10.9117 1.77334 2.64133
upperneck 31.3383 0.38421 4.00587
head 12.1206 0.88429 1.08122
rclavicle -4.09263e-014 1.11319e-014
rhumerus 3.76462 19.5316 -75.5192
rradius 89.8233
rwrist 23.3452
rhand -19.6679 -28.9329
rfingers 7.12502
rthumb 6.66037 -58.8082
lclavicle -4.09263e-014 1.11319e-014
lhumerus -0.38297 -42.217 106.694
lradius 69.131
lwrist 19.3251
lhand -44.7541 -51.0935
lfingers 7.12502
lthumb -17.547 -21.8654
rfemur -11.1118 27.183 19.2403
rtibia 1.58646
rfoot -6.5396 -6.12704
rtoes -10.179
lfemur -0.795245 -20.4091 -12.0885
ltibia 4.85223
lfoot -15.2912 33.181
ltoes 3.25994
763
root -0.167172 17.6105 8.33522 13.2527 -17.7584 -6.58181
lowerback 7.87264 -2.80589 2.32784
upperback -6.74163 -3.2712 2.39641
thorax -11.6977 -1.64958 1.88005
lowerneck -10.8969 1.93201 2.87249
upperneck 31.2731 0.556137 4.00048
head 12.0931 0.984132 1.06015
rclavicle -2.26684e-014 2.38542e-014
rhumerus 5.08786 20.4352 -75.7392
rradius 89.4143
rwrist 22.2319
rhand -19.5623 -29.0413
rfingers 7.12502
rthumb 6.76238 -58.9133
lclavicle -2.26684e-014 2.38542e-014
lhumerus 0.401032 -41.546 106.746
lradius 68.6873
lwrist 20.6185
lhand -44.975 -51.5706
lfingers 7.12502
lthumb -17.7596 -22.3616
rfemur -11.6168 27.442 18.784
rtibia 1.50074
rfoot -6.3599 -6.2652
rtoes -10.5677
lfemur -0.760221 -20.6969 -12.2974
ltibia 4.44999
lfoot -15.7205 33.574
ltoes 2.69147
764
root -0.100641 17.6088 8.3172 13.4783 -18.1589 -6.74622
lowerback 8.07011 -2.86931 2.31073
upperback -6.72419 -3.33958 2.52515
thorax -11.7892 -1.67317 2.05332
lowerneck -10.8551 2.03964 3.09644
upperneck 31.2281 0.655539 3.99741
head 12.0692 1.05104 1.03161
rclavicle 1.09394e-014 4.1546e-014
rhumerus 6.08468 21.1573 -76.123
rradius 88.8714
rwrist 21.066
rhand -19.4084 -29.2696
rfingers 7.12502
rthumb 6.91097 -59.1368
lclavicle 1.09394e-014 4.1546e-014
lhumerus 1.12192 -40.8731 106.744
lradius 68.016
lwrist 21.889
lhand -45.2811 -51.6681
lfingers 7.12502
lthumb -18.0541 -22.486
rfemur -11.9819 27.7105 18.5556
rtibia 1.43804
rfoot -6.19466 -6.53317
rtoes -10.9244
lfemur -0.613343 -21.0519 -12.3951
ltibia 3.98155
lfoot -16.1213 33.9874
ltoes 2.37453
765
root -0.0345075 17.6076 8.29833 13.6583 -18.3562 -6.94889
lowerback 8.29084 -2.94443 2.3261
upperback -6.69597 -3.41791 2.65662
thorax -11.8843 -1.70361 2.21502
lowerneck -10.8438 2.08485 3.24885
upperneck 31.2576 0.657785 4.05424
head 12.0819 1.07496 1.02703
rclavicle 4.99322e-014 -5.02925e-014
rhumerus 6.73072 21.6975 -76.6842
rradius 88.1585
rwrist 19.9022
rhand -19.1683 -29.6788
rfingers 7.12502
rthumb 7.14274 -59.5383
lclavicle 4.99322e-014 -5.02925e-014
lhumerus 1.72594 -40.2063 106.684
lradius 67.155
lwrist 22.9719
lhand -45.5237 -51.578
lfingers 7.12502
lthumb -18.2875 -22.4176
rfemur -12.2479 28.0008 18.4296
rtibia 1.38068
rfoot -6.05264 -7.01947
rtoes -11.263
lfemur -0.449045 -21.5311 -12.4467
ltibia 3.5002
lfoot -16.4822 34.4252
ltoes 2.42138
766
root 0.0303122 17.6064 8.27838 13.8101 -18.388 -7.19911
lowerback 8.4984 -3.012 2.40208
upperback -6.65217 -3.47957 2.771
thorax -11.9587 -1.7319 2.32028
lowerneck -10.865 2.06133 3.33931
upperneck 31.3483 0.547063 4.1854
head 12.1263 1.05175 1.04791
rclavicle -8.95339e-014 1.17283e-014
rhumerus 7.00853 22.0742 -77.4436
rradius 87.2586
rwrist 18.6272
rhand -18.9005 -30.2582
rfingers 7.12502
rthumb 7.40118 -60.1087
lclavicle -8.95339e-014 1.17283e-014
lhumerus 2.14064 -39.5926 106.54
lradius 66.1857
lwrist 23.6884
lhand -45.598 -51.394
lfingers 7.12502
lthumb -18.359 -22.2404
rfemur -12.446 28.2909 18.4059
rtibia 1.33508
rfoot -5.93072 -7.66643
rtoes -11.5227
lfemur -0.27915 -22.1248 -12.4378
ltibia 3.01209
lfoot -16.7948 34.9068
ltoes 2.82905
767
root 0.0934136 17.6059 8.25819 13.9234 -18.2683 -7.43691
lowerback 8.7071 -3.06801 2.50144
upperback -6.61609 -3.52484 2.85061
thorax -12.0467 -1.75578 2.37279
lowerneck -10.9053 1.97105 3.36345
upperneck 31.4957 0.327869 4.39001
head 12.1983 0.982913 1.09508
rclavicle -7.78987e-015 2.82274e-014
rhumerus 6.86548 22.3447 -78.4127
rradius 86.2006
rwrist 17.1175
rhand -18.4987 -30.9267
rfingers 7.12502
rthumb 7.78906 -60.7632
lclavicle -7.78987e-015 2.82274e-014
lhumerus 2.22828 -39.0626 106.332
lradius 65.2187
lwrist 23.9022
lhand -45.5282 -51.2366
lfingers 7.12502
lthumb -18.2919 -22.0766
rfemur -12.5851 28.5598 18.4067
rtibia 1.28339
rfoot -5.82561 -8.46023
rtoes -11.6325
lfemur -0.130134 -22.8472 -12.4252
ltibia 2.54888
lfoot -17.0403 35.4264
ltoes 3.44345
768
root 0.154761 17.6057 8.23824 14.0122 -18.0648 -7.64079
lowerback 8.90957 -3.09079 2.61456
upperback -6.60259 -3.52699 2.88339
thorax -12.1612 -1.76235 2.35983
lowerneck -10.9775 1.81505 3.30356
upperneck 31.7209 -0.00419479 4.69042
head 12.3106 0.867979 1.18033
rclavicle 4.25958e-014 -1.51076e-014
rhumerus 6.26902 22.6215 -79.5941
rradius 85.0334
rwrist 15.1133
rhand -17.9362 -31.6841
rfingers 7.12502
rthumb 8.33188 -61.4998
lclavicle 4.25958e-014 -1.51076e-014
lhumerus 1.86457 -38.6647 106.057
lradius 64.3704
lwrist 23.6033
lhand -45.2859 -51.0344
lfingers 7.12502
lthumb -18.0588 -21.8527
rfemur -12.7095 28.7544 18.3899
rtibia 1.23581
rfoot -5.73583 -9.29331
rtoes -11.5217
lfemur -0.0161263 -23.6672 -12.4338
ltibia 2.1254
lfoot -17.1999 35.9898
ltoes 4.04995
769
root 0.21341 17.606 8.21926 14.0516 -17.8405 -7.90419
lowerback 9.15144 -3.06058 2.81908
upperback -6.58688 -3.44352 2.89342
thorax -12.3063 -1.73649 2.25723
lowerneck -11.0638 1.60708 3.18388
upperneck 31.9804 -0.41688 5.0393
head 12.4435 0.717988 1.28497
rclavicle 3.11222e-015 -1.43125e-014
rhumerus 5.22648 23.0057 -80.9791
rradius 83.839
rwrist 12.3898
rhand -17.133 -32.5268
rfingers 7.12502
rthumb 9.10704 -62.3102
lclavicle 3.11222e-015 -1.43125e-014
lhumerus 0.94781 -38.4332 105.708
lradius 63.7762
lwrist 22.9171
lhand -45.021 -50.924
lfingers 7.12502
lthumb -17.8038 -21.719
rfemur -12.7357 28.8662 18.5112
rtibia 1.18301
rfoot -5.6514 -10.0721
rtoes -11.1428
lfemur 0.178936 -24.5074 -12.3983
ltibia 1.70321
lfoot -17.255 36.5786
ltoes 4.48243
